<svg width="200" height="56" viewBox="0 0 200 56" fill="none" xmlns="http://www.w3.org/2000/svg">
<path d="M54.1906 22.4496C54.1275 22.5907 54.0954 22.6515 54.0724 22.7157C53.4507 24.4833 52.5159 25.1646 50.6153 25.1899C49.4568 25.2048 48.4405 25.5225 47.6732 26.4378C47.5068 26.6351 47.3623 26.8496 47.1937 27.0756C46.7796 25.6877 45.8333 24.9375 44.4718 24.6267C43.1046 24.3135 42.2604 23.4533 41.9587 22.0757C41.9185 21.891 41.8864 21.7041 41.8474 21.5022C41.1133 22.1789 40.7073 23.9488 40.9826 25.5064C41.4035 27.8968 42.8086 29.4488 44.9639 30.34C44.8928 30.5511 44.8159 30.761 44.7288 30.9686C43.5439 33.7925 40.986 35.5005 37.9315 35.5108C35.8164 35.5177 33.8676 34.9258 32.2331 33.6159C30.8521 32.509 29.6018 31.2312 28.347 29.9764C26.795 28.4222 25.2615 26.8542 23.3666 25.7095C20.8695 24.2011 18.182 23.5622 15.2835 24.0967C11.106 24.8675 8.03431 27.8682 7.27957 31.9C7.14995 32.5893 7.1534 33.3039 7.09375 34.0392H11.3481C13.3886 34.0392 15.3386 34.4693 17.0855 35.5177C18.5124 36.3722 19.8601 37.3644 21.2056 38.3439C22.3928 39.2076 23.5811 40.0507 25.0206 40.443C27.7092 41.1748 30.2602 40.9809 32.5967 39.3235C32.7125 39.2421 32.8387 39.1709 33.0142 39.062C32.9878 39.1939 32.9775 39.2593 32.9614 39.3246C32.5187 41.0888 33.2837 42.3482 35.0593 42.7405C36.2821 43.01 37.5036 42.8988 38.7023 42.5937C41.8727 41.7873 44.4019 40.0301 46.3059 37.3747C47.719 35.403 48.4795 33.2121 48.5266 30.7988C48.5013 30.7919 48.4772 30.785 48.452 30.7782C48.608 30.7506 48.7766 30.7208 48.9441 30.6864C52.376 29.9925 54.4922 27.6422 54.6402 24.3479C54.6689 23.7125 54.576 23.0931 54.1894 22.4519L54.1906 22.4496ZM15.8754 32.2452C15.1459 32.2464 14.5494 31.6705 14.5414 30.9548C14.5322 30.2253 15.1401 29.5738 15.8375 29.5646C16.5487 29.5554 17.2116 30.2024 17.23 30.925C17.2495 31.6338 16.6232 32.2429 15.8754 32.2452Z" fill="#2D91FE"/>
<path d="M20.0723 22.7501C20.2616 22.89 20.4795 23.0105 20.702 23.0804C21.2182 23.2433 21.7068 23.436 22.0796 23.9614C22.1415 23.3661 22.0509 22.89 21.8158 22.4461C21.5336 21.9139 21.0599 21.6776 20.4784 21.6513C20.2042 21.6386 19.9943 21.7832 19.8934 22.0435C19.7879 22.3154 19.8349 22.5758 20.0712 22.7501H20.0723Z" fill="#2D91FE"/>
<path d="M34.37 18.7983C34.37 19.649 33.6803 20.3387 32.8295 20.3387C32.4923 20.3387 32.1805 20.2304 31.9268 20.0466L29.4289 21.4334C28.7946 21.7856 28.3874 22.4554 28.3691 23.1815L28.2372 28.1332H28.236L27.2852 27.2844L27.3953 23.1551C27.4239 22.0873 28.0215 21.102 28.9564 20.5835L31.3566 19.2509C31.3127 19.1078 31.2891 18.9558 31.2891 18.7983C31.2891 17.9475 31.9787 17.2578 32.8295 17.2578C33.6803 17.2578 34.37 17.9475 34.37 18.7983Z" fill="#2D91FE"/>
<path d="M26.7881 12.1146C27.3382 11.8929 27.7265 11.3541 27.7265 10.7246C27.7265 9.89725 27.0558 9.22656 26.2285 9.22656C25.4012 9.22656 24.7305 9.89725 24.7305 10.7246C24.7305 11.4083 25.1886 11.9851 25.8146 12.1647L25.7422 17.1641L26.7148 17.1782L26.7881 12.1146Z" fill="#2D91FE"/>
<path d="M21.8608 20.306C21.6028 20.5274 21.2674 20.6611 20.9009 20.6611C20.0862 20.6611 19.4258 20.0007 19.4258 19.186C19.4258 18.3714 20.0862 17.7109 20.9009 17.7109C21.7155 17.7109 22.3759 18.3714 22.3759 19.186C22.3759 19.2798 22.3672 19.3715 22.3504 19.4604L23.5403 20.0107C24.544 20.4741 25.192 21.4881 25.192 22.5938V25.8101L24.2194 25.1471V22.5938C24.2194 21.8666 23.7927 21.1991 23.132 20.894L21.8608 20.306Z" fill="#2D91FE"/>
<path d="M20.0727 15.8251C20.3965 15.8251 20.696 15.7208 20.9392 15.5439L25.5087 18.9902C25.6077 19.0644 25.7138 19.1236 25.8242 19.1677V26.3492L26.7969 27.0833V19.1796C26.907 19.1386 27.0131 19.0828 27.1123 19.012L31.7972 15.676C32.061 15.9418 32.4265 16.1065 32.8306 16.1065C33.6345 16.1065 34.2861 15.4548 34.2861 14.6509C34.2861 13.847 33.6345 13.1953 32.8306 13.1953C32.0267 13.1953 31.375 13.847 31.375 14.6509C31.375 14.6938 31.3769 14.7363 31.3805 14.7783L26.548 18.2194C26.4115 18.3169 26.2291 18.3146 26.0949 18.2137L21.4946 14.7442C21.5293 14.6187 21.5478 14.4866 21.5478 14.3501C21.5478 13.5354 20.8874 12.875 20.0727 12.875C19.2581 12.875 18.5977 13.5354 18.5977 14.3501C18.5977 15.1647 19.2581 15.8251 20.0727 15.8251Z" fill="#2D91FE"/>
<path d="M11.9744 40.3918C10.068 38.2503 9.13895 36.1433 8.85678 34.9423C8.40026 34.9446 7.94489 34.9469 7.48838 34.9492C7.89328 36.1995 8.92675 38.794 11.4869 41.1007C14.4175 43.7423 17.6533 44.4787 18.9861 44.7092C17.7588 44.4339 14.6458 43.3925 11.9744 40.3918Z" fill="#2D91FE"/>
<path d="M13.6949 38.6221C12.7268 37.178 12.2784 35.8038 12.0547 34.8805C11.5408 34.9092 10.9868 34.8621 10.4729 34.8908C10.8136 36.2294 11.6521 38.5601 13.6502 40.5927C18.0731 45.0947 25.0229 44.8252 25.9428 44.7357C24.5297 44.7277 21.7631 44.2712 19.3176 43.1712C18.2314 42.6825 15.5944 41.4564 13.6949 38.6221Z" fill="#2D91FE"/>
<path d="M15.6713 35.9781C14.9257 35.6467 14.2111 35.4195 13.5883 35.3989C14.1319 36.5849 15.8181 39.7851 19.406 41.8394C24.0526 44.5017 29.5847 44.3044 31.0792 44.2057C29.4149 44.1473 26.5611 43.8949 24.0285 42.9509C18.6788 40.9562 16.3927 37.2938 15.6713 35.9781Z" fill="#2D91FE"/>
<path d="M64.2534 24.6256C64.1892 24.4754 64.1456 24.2827 64.1456 24.1106C64.1456 23.3811 64.7673 22.8237 65.4968 22.8237C66.1402 22.8237 66.6335 23.2308 66.8055 23.7894L70.2592 34.1092L73.6487 23.833C73.8632 23.2113 74.3139 22.7812 74.9792 22.7812H75.1719C75.8372 22.7812 76.3086 23.2102 76.5025 23.833L79.8919 34.1092L83.3456 23.7688C83.5383 23.232 83.9891 22.8248 84.6326 22.8248C85.3403 22.8248 85.9413 23.3823 85.9413 24.0911C85.9413 24.2632 85.8771 24.4777 85.8129 24.6279L81.3716 37.0708C81.1353 37.7361 80.6421 38.1651 79.9986 38.1651H79.7417C79.0982 38.1651 78.6256 37.7579 78.3905 37.0708L75.0434 27.2661L71.6964 37.0708C71.4601 37.7579 70.9669 38.1651 70.3234 38.1651H70.0665C69.423 38.1651 68.9505 37.7579 68.6935 37.0708L64.2522 24.6279L64.2534 24.6256Z" fill="#EEF8FF"/>
<path d="M88.2388 23.4671C88.2388 22.7594 88.7963 22.1801 89.5258 22.1801C90.2553 22.1801 90.8345 22.7594 90.8345 23.4671V28.3592C91.564 27.3073 92.6147 26.3851 94.3742 26.3851C96.9275 26.3851 98.4072 28.1011 98.4072 30.7186V36.7691C98.4072 37.4986 97.8497 38.0561 97.1202 38.0561C96.3907 38.0561 95.8115 37.4986 95.8115 36.7691V31.5123C95.8115 29.7528 94.9317 28.7446 93.3867 28.7446C91.8416 28.7446 90.8334 29.7964 90.8334 31.5548V36.768C90.8334 37.4975 90.2541 38.055 89.5246 38.055C88.7951 38.055 88.2377 37.4975 88.2377 36.768V23.466L88.2388 23.4671Z" fill="#EEF8FF"/>
<path d="M100.79 34.646C100.79 32.2005 102.699 30.9985 105.467 30.9985C106.733 30.9985 107.634 31.1912 108.514 31.471V31.1923C108.514 29.583 107.527 28.7251 105.703 28.7251C104.717 28.7251 103.901 28.8971 103.194 29.1758C103.043 29.2183 102.915 29.2401 102.787 29.2401C102.185 29.2401 101.692 28.7686 101.692 28.1676C101.692 27.695 102.015 27.2878 102.4 27.1376C103.472 26.7304 104.567 26.4723 106.048 26.4723C107.743 26.4723 109.008 26.9231 109.802 27.7386C110.638 28.5541 111.024 29.7551 111.024 31.2359V36.8139C111.024 37.5216 110.467 38.0584 109.758 38.0584C109.007 38.0584 108.492 37.5434 108.492 36.9641V36.5351C107.72 37.4573 106.54 38.1869 104.802 38.1869C102.678 38.1869 100.79 36.9641 100.79 34.6896V34.646ZM108.556 33.8729V33.101C107.891 32.844 107.011 32.6502 105.981 32.6502C104.307 32.6502 103.321 33.3579 103.321 34.5382V34.5806C103.321 35.6749 104.287 36.2966 105.531 36.2966C107.247 36.2966 108.556 35.3101 108.556 33.8717V33.8729Z" fill="#EEF8FF"/>
<path d="M114.284 23.4671C114.284 22.7594 114.842 22.1801 115.571 22.1801C116.301 22.1801 116.88 22.7594 116.88 23.4671V36.7691C116.88 37.4986 116.301 38.0561 115.571 38.0561C114.842 38.0561 114.284 37.4986 114.284 36.7691V23.4671Z" fill="#EEF8FF"/>
<path d="M125.462 38.2064C122.179 38.2064 119.648 35.8252 119.648 32.3279V32.2854C119.648 29.0462 121.943 26.3852 125.183 26.3852C128.787 26.3852 130.569 29.3456 130.569 31.9631C130.569 32.6926 130.011 33.2076 129.346 33.2076H122.245C122.523 35.0521 123.832 36.0821 125.506 36.0821C126.6 36.0821 127.458 35.6955 128.187 35.0956C128.38 34.9454 128.552 34.8594 128.853 34.8594C129.432 34.8594 129.883 35.3101 129.883 35.9112C129.883 36.2324 129.732 36.5122 129.54 36.7049C128.51 37.6271 127.223 38.2064 125.463 38.2064H125.462ZM128.037 31.4917C127.865 29.8182 126.879 28.5094 125.163 28.5094C123.575 28.5094 122.459 29.7322 122.224 31.4917H128.038H128.037Z" fill="#EEF8FF"/>
<path d="M132.671 36.2323L138.249 23.7894C138.55 23.1241 139.085 22.7169 139.837 22.7169H139.965C140.716 22.7169 141.231 23.1241 141.531 23.7894L147.109 36.2323C147.216 36.425 147.259 36.6188 147.259 36.7898C147.259 37.4975 146.722 38.0561 146.014 38.0561C145.393 38.0561 144.963 37.6913 144.727 37.1339L143.505 34.3237H136.211L134.944 37.2199C134.73 37.7567 134.279 38.0561 133.722 38.0561C133.035 38.0561 132.499 37.5193 132.499 36.8333C132.499 36.6406 132.563 36.4468 132.671 36.2323ZM142.496 31.9849L139.857 25.9137L137.218 31.9849H142.496Z" fill="#2D91FE"/>
<path d="M150.263 24.1323C150.263 23.4028 150.842 22.8236 151.594 22.8236C152.345 22.8236 152.902 23.4028 152.902 24.1323V36.7473C152.902 37.4768 152.323 38.056 151.594 38.056C150.864 38.056 150.263 37.4768 150.263 36.7473V24.1323Z" fill="#2D91FE"/>
</svg>
